#N canvas 193 76 1169 663 10;
#N canvas 68 78 585 599 receiveOSC 0;
#X obj 72 463 onebang;
#X obj 72 25 OSCroute /YYSeesaw;
#X obj 72 44 unpack 0 0 0 0 0;
#X obj 72 6 dumpOSC 9999;
#X floatatom 148 398 5 0 0 0 - - -;
#X floatatom 110 398 5 0 0 0 - - -;
#X obj 72 211 expr if ($f1 < 0.4 \, 1 \, $f1) \;;
#X obj 72 230 expr if ($f1 < 0.6 \, 2 \, $f1) \;;
#X obj 72 372 gate 3;
#X floatatom 72 398 5 0 0 0 - - -;
#X floatatom 23 307 5 0 0 0 - - -;
#X obj 72 249 expr if ($f1 < 1 \, 3 \, $f1) \;;
#X obj 72 192 expr if ($f1 > 1 \, 3 \, $f1);
#X obj 72 268 select 1 2 3;
#X msg 72 287 1;
#X msg 95 287 2;
#X msg 118 287 3;
#X floatatom 23 170 5 0 0 0 - - -;
#X obj 120 463 onebang;
#X obj 168 463 onebang;
#X obj 72 438 bng 15 250 50 0 empty empty empty 17 7 0 10 -262144 -1
-1;
#X obj 120 438 bng 15 250 50 0 empty empty empty 17 7 0 10 -262144
-1 -1;
#X obj 168 438 bng 15 250 50 0 empty empty empty 17 7 0 10 -262144
-1 -1;
#X obj 426 429 bng 15 250 50 0 empty empty empty 17 7 0 10 -262144
-1 -1;
#X obj 426 454 onebang;
#X obj 465 398 bng 15 250 50 0 empty empty empty 17 7 0 10 -262144
-1 -1;
#X obj 23 552 s value;
#X obj 72 514 s positionL;
#X obj 144 514 s positionC;
#X obj 216 514 s positionR;
#X obj 72 111 expr ($i1-70)*0.0025 \; ($i2-70)*0.00162 \; $i3 \;;
#X obj 501 339 s turn;
#X obj 363 204 expr if ($f1 > 520 \, 1 \, 0);
#X obj 363 231 select 0 1;
#X obj 351 334 bng 15 250 50 0 empty empty empty 17 7 0 10 -262144
-1 -1;
#X obj 415 339 bng 15 250 50 0 empty empty empty 17 7 0 10 -262144
-1 -1;
#X obj 336 289 onebang;
#X obj 410 295 onebang;
#X connect 0 0 27 0;
#X connect 1 0 2 0;
#X connect 2 0 30 0;
#X connect 2 1 30 1;
#X connect 2 4 30 2;
#X connect 3 0 1 0;
#X connect 4 0 22 0;
#X connect 5 0 21 0;
#X connect 6 0 7 0;
#X connect 7 0 11 0;
#X connect 8 0 9 0;
#X connect 8 1 5 0;
#X connect 8 2 4 0;
#X connect 9 0 20 0;
#X connect 10 0 8 1;
#X connect 10 0 26 0;
#X connect 11 0 13 0;
#X connect 12 0 6 0;
#X connect 13 0 14 0;
#X connect 13 1 15 0;
#X connect 13 2 16 0;
#X connect 13 3 23 0;
#X connect 14 0 8 0;
#X connect 15 0 8 0;
#X connect 16 0 8 0;
#X connect 17 0 10 0;
#X connect 18 0 28 0;
#X connect 19 0 29 0;
#X connect 20 0 0 0;
#X connect 20 0 18 1;
#X connect 20 0 19 1;
#X connect 21 0 18 0;
#X connect 21 0 19 1;
#X connect 21 0 0 1;
#X connect 22 0 19 0;
#X connect 22 0 18 1;
#X connect 22 0 0 1;
#X connect 23 0 24 0;
#X connect 25 0 24 1;
#X connect 30 0 12 0;
#X connect 30 0 17 0;
#X connect 30 2 32 0;
#X connect 32 0 33 0;
#X connect 33 0 36 0;
#X connect 33 0 37 1;
#X connect 33 1 37 0;
#X connect 33 1 36 1;
#X connect 36 0 34 0;
#X connect 37 0 35 0;
#X connect 37 0 31 0;
#X restore 12 13 pd receiveOSC;
#X obj 71 532 s rnStart;
#X obj 131 532 s rnStop;
#X obj 23 532 s rnBPM;
#X obj 23 494 line;
#X floatatom 23 457 5 0 0 0 - - -;
#X msg 23 475 \$1 100;
#X obj 71 457 bng 15 250 50 0 empty empty empty 17 7 0 10 -262144 -1
-1;
#X obj 131 457 bng 15 250 50 0 empty empty empty 17 7 0 10 -262144
-1 -1;
#X obj 12 32 r value;
#X obj 60 32 r positionL;
#X obj 132 32 r positionC;
#X obj 204 32 r positionR;
#X obj 60 52 bng 15 250 50 0 empty empty empty 17 7 0 10 -262144 -1
-1;
#X obj 132 52 bng 15 250 50 0 empty empty empty 17 7 0 10 -262144 -1
-1;
#X obj 204 52 bng 15 250 50 0 empty empty empty 17 7 0 10 -262144 -1
-1;
#X obj 185 532 s tapeStart;
#X obj 257 532 s tapeStop;
#X obj 185 457 bng 15 250 50 0 empty empty empty 17 7 0 10 -262144
-1 -1;
#X obj 257 457 bng 15 250 50 0 empty empty empty 17 7 0 10 -262144
-1 -1;
#X floatatom 12 51 5 0 0 0 - - -;
#X obj 23 513 * 400;
#X obj 276 32 r turn;
#X obj 324 532 s tapeParameters;
#X obj 276 52 bng 15 250 50 0 empty empty empty 17 7 0 10 -262144 -1
-1;
#X obj 397 107 counter;
#X obj 397 126 select 0 1 2 3;
#X obj 397 145 bng 15 250 50 0 empty empty empty 17 7 0 10 -262144
-1 -1;
#X obj 417 145 bng 15 250 50 0 empty empty empty 17 7 0 10 -262144
-1 -1;
#X obj 437 145 bng 15 250 50 0 empty empty empty 17 7 0 10 -262144
-1 -1;
#X obj 457 145 bng 15 250 50 0 empty empty empty 17 7 0 10 -262144
-1 -1;
#X obj 476 145 bng 15 250 50 0 empty empty empty 17 7 0 10 -262144
-1 -1;
#X obj 397 88 r turn;
#N canvas 55 172 657 406 susNotes 0;
#X obj 169 123 random 100;
#X obj 169 142 + 30;
#X obj 335 82 bng 15 250 50 0 empty empty empty 17 7 0 10 -262144 -1
-1;
#X obj 23 277 pack;
#X floatatom 23 241 5 0 0 0 - - -;
#X msg 23 161 2;
#X msg 51 161 4;
#X msg 79 161 6;
#X msg 107 161 0;
#X obj 23 142 select 0 1 2 3 4;
#X obj 23 123 random 5;
#X msg 134 161 1;
#X floatatom 169 241 5 0 0 0 - - -;
#X obj 248 270 +;
#X floatatom 248 289 5 0 0 0 - - -;
#X msg 248 240 0;
#X obj 23 215 + 60;
#X msg 23 321 1 1 \$1 \$2;
#X msg 248 321 1 1 \$1;
#X obj 248 211 delay 500;
#X obj 23 349 print note_on;
#X obj 248 349 print note_off;
#X obj 365 166 spigot;
#X msg 491 111 0;
#X msg 398 147 1;
#X obj 398 128 onebang;
#X obj 437 59 bng 15 250 50 0 empty empty empty 17 7 0 10 -262144 -1
-1;
#X obj 280 27 inlet;
#X obj 316 27 inlet;
#X text 453 57 reset;
#X text 278 13 start;
#X text 314 13 stop;
#X obj 437 40 loadbang;
#X obj 352 27 inlet;
#X obj 299 192 * 1000;
#X text 350 13 duration;
#X connect 0 0 1 0;
#X connect 1 0 12 0;
#X connect 2 0 0 0;
#X connect 2 0 10 0;
#X connect 2 0 19 0;
#X connect 2 0 25 0;
#X connect 3 0 17 0;
#X connect 4 0 13 1;
#X connect 4 0 3 0;
#X connect 5 0 16 0;
#X connect 6 0 16 0;
#X connect 7 0 16 0;
#X connect 8 0 16 0;
#X connect 9 0 5 0;
#X connect 9 1 6 0;
#X connect 9 2 7 0;
#X connect 9 3 8 0;
#X connect 9 4 11 0;
#X connect 10 0 9 0;
#X connect 11 0 16 0;
#X connect 12 0 3 1;
#X connect 13 0 14 0;
#X connect 14 0 18 0;
#X connect 15 0 13 0;
#X connect 16 0 4 0;
#X connect 17 0 20 0;
#X connect 18 0 21 0;
#X connect 19 0 15 0;
#X connect 19 0 22 0;
#X connect 22 0 2 0;
#X connect 23 0 22 1;
#X connect 24 0 22 1;
#X connect 25 0 24 0;
#X connect 26 0 25 1;
#X connect 27 0 2 0;
#X connect 28 0 23 0;
#X connect 28 0 26 0;
#X connect 32 0 26 0;
#X connect 33 0 34 0;
#X connect 34 0 19 1;
#X restore 582 213 pd susNotes;
#X obj 582 65 bng 16 250 50 0 empty empty START 17 7 0 10 -262144 -1
-1;
#X obj 613 82 bng 16 250 50 0 empty empty STOP 17 7 0 10 -262144 -1
-1;
#N canvas 447 139 774 550 randomNotes2low 0;
#X obj 185 93 random 100;
#X obj 185 112 + 30;
#X obj 264 182 delay 1000;
#X obj 321 163 * 100;
#X obj 321 144 random 50;
#X obj 321 55 bng 15 250 50 0 empty empty empty 17 7 0 10 -262144 -1
-1;
#X obj 39 425 pack;
#X floatatom 39 158 5 0 0 0 - - -;
#X msg 39 131 2;
#X msg 67 131 4;
#X msg 95 131 6;
#X msg 123 131 0;
#X obj 39 112 select 0 1 2 3 4;
#X obj 39 93 random 5;
#X msg 150 131 1;
#X floatatom 185 170 5 0 0 0 - - -;
#X obj 264 240 +;
#X floatatom 264 259 5 0 0 0 - - -;
#X msg 264 210 0;
#X obj 39 497 print note_on;
#X obj 264 423 print note_off;
#X msg 39 469 2 2 \$1 \$2;
#X msg 264 395 2 2 \$1;
#X obj 406 217 spigot;
#X msg 548 179 0;
#X msg 439 198 1;
#X obj 439 179 onebang;
#X obj 478 162 bng 15 250 50 0 empty empty reset 17 7 0 10 -262144
-1 -1;
#X obj 512 25 inlet;
#X obj 548 25 inlet;
#X text 510 11 start;
#X text 546 11 stop;
#X obj 39 304 +;
#X obj 54 266 int;
#X obj 54 285 * 12;
#X obj 54 228 * 10;
#X obj 54 247 - 10;
#X obj 54 209 + 1;
#X obj 478 143 loadbang;
#X floatatom 39 323 5 0 0 0 - - -;
#X obj 584 25 inlet;
#X text 582 11 range;
#X obj 620 25 inlet;
#X obj 606 81 * 50;
#X floatatom 629 147 5 0 0 0 - - -;
#X text 618 11 duration;
#X connect 0 0 1 0;
#X connect 1 0 15 0;
#X connect 2 0 18 0;
#X connect 2 0 23 0;
#X connect 3 0 2 1;
#X connect 4 0 3 0;
#X connect 5 0 0 0;
#X connect 5 0 13 0;
#X connect 5 0 4 0;
#X connect 5 0 2 0;
#X connect 5 0 26 0;
#X connect 6 0 21 0;
#X connect 7 0 32 0;
#X connect 8 0 7 0;
#X connect 9 0 7 0;
#X connect 10 0 7 0;
#X connect 11 0 7 0;
#X connect 12 0 8 0;
#X connect 12 1 9 0;
#X connect 12 2 10 0;
#X connect 12 3 11 0;
#X connect 12 4 14 0;
#X connect 13 0 12 0;
#X connect 14 0 7 0;
#X connect 15 0 6 1;
#X connect 16 0 17 0;
#X connect 17 0 22 0;
#X connect 18 0 16 0;
#X connect 21 0 19 0;
#X connect 22 0 20 0;
#X connect 23 0 5 0;
#X connect 24 0 23 1;
#X connect 25 0 23 1;
#X connect 26 0 25 0;
#X connect 27 0 26 1;
#X connect 28 0 5 0;
#X connect 29 0 24 0;
#X connect 29 0 27 0;
#X connect 32 0 39 0;
#X connect 33 0 34 0;
#X connect 34 0 32 1;
#X connect 35 0 36 0;
#X connect 36 0 33 0;
#X connect 37 0 35 0;
#X connect 38 0 27 0;
#X connect 39 0 6 0;
#X connect 39 0 16 1;
#X connect 40 0 37 0;
#X connect 42 0 43 0;
#X connect 43 0 44 0;
#X restore 582 453 pd randomNotes2low;
#X floatatom 645 195 5 0 0 1 DURATION - -;
#N canvas 103 158 1119 492 Renoise 0;
#X obj 18 425 sendOSC;
#X msg 33 50 disconnect;
#X floatatom 18 449 5 0 0 0 - - -;
#X floatatom 57 449 5 0 0 0 - - -;
#X msg 517 275 send /renoise/transport/start;
#X msg 517 313 send /renoise/transport/stop;
#X msg 517 333 send /renoise/transport/continue;
#X msg 517 237 send /renoise/song/bpm \$1;
#X msg 51 95 send /renoise/trigger/note_on \$1 \$2 \$3 \$4;
#X msg 83 133 send /renoise/trigger/note_off \$1 \$2 \$3;
#X obj 517 256 r rnStart;
#X obj 517 294 r rnStop;
#X obj 517 218 r rnBPM;
#X obj 957 59 r rnPitch;
#X msg 495 132 send /renoise/song/instrument/3/macro1 \$1;
#X msg 527 151 send /renoise/song/instrument/4/macro1 \$1;
#X msg 432 94 send /renoise/song/instrument/1/macro1 \$1;
#X msg 463 113 send /renoise/song/instrument/2/macro1 \$1;
#X obj 51 76 r note_on;
#X obj 83 114 r note_off;
#X msg 18 22 connect localhost 65535;
#X connect 0 0 2 0;
#X connect 0 1 3 0;
#X connect 1 0 0 0;
#X connect 4 0 0 0;
#X connect 5 0 0 0;
#X connect 6 0 0 0;
#X connect 7 0 0 0;
#X connect 8 0 0 0;
#X connect 9 0 0 0;
#X connect 10 0 4 0;
#X connect 11 0 5 0;
#X connect 12 0 7 0;
#X connect 14 0 0 0;
#X connect 15 0 0 0;
#X connect 16 0 0 0;
#X connect 17 0 0 0;
#X connect 18 0 8 0;
#X connect 19 0 9 0;
#X connect 20 0 0 0;
#X restore 96 13 pd Renoise 65535;
#X obj 645 176 spigot;
#X msg 678 157 1;
#X msg 706 157 0;
#X obj 831 65 r value;
#X obj 892 103 r positionR;
#X obj 864 84 r positionL;
#X obj 582 262 bng 16 250 50 0 empty empty START 17 7 0 10 -262144
-1 -1;
#X obj 617 279 bng 16 250 50 0 empty empty STOP 17 7 0 10 -262144 -1
-1;
#X obj 652 416 abs;
#X floatatom 652 435 5 0 0 1 RANGE - -;
#N canvas 5 76 675 663 SuperCollider 0;
#X obj 21 599 sendOSC;
#X floatatom 21 623 5 0 0 0 - - -;
#X floatatom 60 623 5 0 0 0 - - -;
#X msg 27 37 disconnect;
#X msg 21 17 connect localhost 7777;
#X obj 76 92 r tapeStart;
#X msg 76 111 send /tape/start;
#X obj 107 130 r tapeStop;
#X msg 107 149 send /tape/stop;
#X obj 139 168 r tapeParameters;
#X msg 139 187 send /tape/parameters \$1;
#X obj 171 206 r bellStart;
#X msg 171 225 send /bell/start;
#X obj 202 244 r bellStop;
#X msg 202 263 send /bell/stop;
#X obj 234 282 r bellParameters;
#X msg 234 301 send /bell/parameters \$1 \$2;
#X connect 0 0 1 0;
#X connect 0 1 2 0;
#X connect 3 0 0 0;
#X connect 4 0 0 0;
#X connect 5 0 6 0;
#X connect 6 0 0 0;
#X connect 7 0 8 0;
#X connect 8 0 0 0;
#X connect 9 0 10 0;
#X connect 10 0 0 0;
#X connect 11 0 12 0;
#X connect 12 0 0 0;
#X connect 13 0 14 0;
#X connect 14 0 0 0;
#X connect 15 0 16 0;
#X connect 16 0 0 0;
#X restore 198 13 pd SuperCollider;
#X msg 686 378 0;
#X msg 714 378 1;
#X obj 652 397 -;
#X obj 742 416 abs;
#X floatatom 742 435 5 0 0 1 DURATION - -;
#X msg 776 378 0;
#X msg 804 378 1;
#X obj 742 397 -;
#X obj 885 262 bng 16 250 50 0 empty empty START 17 7 0 10 -262144
-1 -1;
#X obj 920 279 bng 16 250 50 0 empty empty STOP 17 7 0 10 -262144 -1
-1;
#X obj 955 416 abs;
#X floatatom 955 435 5 0 0 1 RANGE - -;
#X obj 955 397 -;
#X obj 1045 416 abs;
#X floatatom 1045 435 5 0 0 1 DURATION - -;
#X obj 1045 397 -;
#X msg 989 378 1;
#X msg 1017 378 0;
#N canvas 447 139 774 550 randomNotes2hig 0;
#X obj 185 93 random 100;
#X obj 185 112 + 30;
#X obj 264 182 delay 1000;
#X obj 321 163 * 100;
#X obj 321 144 random 50;
#X obj 321 55 bng 15 250 50 0 empty empty empty 17 7 0 10 -262144 -1
-1;
#X obj 39 425 pack;
#X floatatom 39 158 5 0 0 0 - - -;
#X msg 39 131 2;
#X msg 67 131 4;
#X msg 95 131 6;
#X msg 123 131 0;
#X obj 39 112 select 0 1 2 3 4;
#X obj 39 93 random 5;
#X msg 150 131 1;
#X floatatom 185 170 5 0 0 0 - - -;
#X obj 264 240 +;
#X floatatom 264 259 5 0 0 0 - - -;
#X msg 264 210 0;
#X obj 39 497 print note_on;
#X obj 264 423 print note_off;
#X msg 39 469 2 2 \$1 \$2;
#X msg 264 395 2 2 \$1;
#X obj 406 217 spigot;
#X msg 548 179 0;
#X msg 439 198 1;
#X obj 439 179 onebang;
#X obj 478 162 bng 15 250 50 0 empty empty reset 17 7 0 10 -262144
-1 -1;
#X obj 512 25 inlet;
#X obj 548 25 inlet;
#X text 510 11 start;
#X text 546 11 stop;
#X obj 39 304 +;
#X obj 54 266 int;
#X obj 54 285 * 12;
#X obj 54 228 * 10;
#X obj 54 247 - 10;
#X obj 54 209 + 1;
#X obj 478 143 loadbang;
#X floatatom 39 323 5 0 0 0 - - -;
#X obj 584 25 inlet;
#X text 582 11 range;
#X obj 620 25 inlet;
#X obj 606 81 * 50;
#X floatatom 629 147 5 0 0 0 - - -;
#X text 618 11 duration;
#X connect 0 0 1 0;
#X connect 1 0 15 0;
#X connect 2 0 18 0;
#X connect 2 0 23 0;
#X connect 3 0 2 1;
#X connect 4 0 3 0;
#X connect 5 0 0 0;
#X connect 5 0 13 0;
#X connect 5 0 4 0;
#X connect 5 0 2 0;
#X connect 5 0 26 0;
#X connect 6 0 21 0;
#X connect 7 0 32 0;
#X connect 8 0 7 0;
#X connect 9 0 7 0;
#X connect 10 0 7 0;
#X connect 11 0 7 0;
#X connect 12 0 8 0;
#X connect 12 1 9 0;
#X connect 12 2 10 0;
#X connect 12 3 11 0;
#X connect 12 4 14 0;
#X connect 13 0 12 0;
#X connect 14 0 7 0;
#X connect 15 0 6 1;
#X connect 16 0 17 0;
#X connect 17 0 22 0;
#X connect 18 0 16 0;
#X connect 21 0 19 0;
#X connect 22 0 20 0;
#X connect 23 0 5 0;
#X connect 24 0 23 1;
#X connect 25 0 23 1;
#X connect 26 0 25 0;
#X connect 27 0 26 1;
#X connect 28 0 5 0;
#X connect 29 0 24 0;
#X connect 29 0 27 0;
#X connect 32 0 39 0;
#X connect 33 0 34 0;
#X connect 34 0 32 1;
#X connect 35 0 36 0;
#X connect 36 0 33 0;
#X connect 37 0 35 0;
#X connect 38 0 27 0;
#X connect 39 0 6 0;
#X connect 39 0 16 1;
#X connect 40 0 37 0;
#X connect 42 0 43 0;
#X connect 43 0 44 0;
#X restore 885 453 pd randomNotes2hig;
#X msg 1079 378 0;
#X msg 1107 378 1;
#X obj 469 88 bng 16 250 50 0 empty empty START 17 7 0 10 -262144 -1
-1;
#X obj 340 208 bng 26 250 50 0 empty empty empty 17 7 0 10 -4034 -1
-1;
#X obj 368 208 bng 26 250 50 0 empty empty empty 17 7 0 10 -4034 -1
-1;
#X obj 396 208 bng 26 250 50 0 empty empty empty 17 7 0 10 -4034 -1
-1;
#X obj 424 208 bng 26 250 50 0 empty empty empty 17 7 0 10 -4160 -1
-1;
#X obj 452 208 bng 26 250 50 0 empty empty empty 17 7 0 10 -4160 -1
-1;
#X obj 480 208 bng 26 250 50 0 empty empty empty 17 7 0 10 -4160 -1
-1;
#X connect 4 0 21 0;
#X connect 5 0 6 0;
#X connect 6 0 4 0;
#X connect 7 0 1 0;
#X connect 8 0 2 0;
#X connect 9 0 20 0;
#X connect 10 0 13 0;
#X connect 11 0 14 0;
#X connect 12 0 15 0;
#X connect 18 0 16 0;
#X connect 19 0 17 0;
#X connect 21 0 3 0;
#X connect 22 0 24 0;
#X connect 25 0 26 0;
#X connect 26 0 27 0;
#X connect 26 1 28 0;
#X connect 26 2 29 0;
#X connect 26 3 30 0;
#X connect 26 4 31 0;
#X connect 31 0 25 2;
#X connect 32 0 25 0;
#X connect 34 0 33 0;
#X connect 35 0 33 1;
#X connect 37 0 33 2;
#X connect 39 0 37 0;
#X connect 40 0 39 1;
#X connect 41 0 39 1;
#X connect 42 0 39 0;
#X connect 42 0 52 0;
#X connect 42 0 57 0;
#X connect 42 0 62 0;
#X connect 42 0 65 0;
#X connect 43 0 41 0;
#X connect 43 0 51 0;
#X connect 43 0 56 0;
#X connect 43 0 67 0;
#X connect 43 0 70 0;
#X connect 44 0 40 0;
#X connect 44 0 50 0;
#X connect 44 0 55 0;
#X connect 44 0 66 0;
#X connect 44 0 69 0;
#X connect 45 0 36 0;
#X connect 46 0 36 1;
#X connect 47 0 48 0;
#X connect 48 0 36 2;
#X connect 50 0 52 1;
#X connect 51 0 52 1;
#X connect 52 0 47 0;
#X connect 53 0 54 0;
#X connect 54 0 36 3;
#X connect 55 0 57 1;
#X connect 56 0 57 1;
#X connect 57 0 53 0;
#X connect 58 0 68 0;
#X connect 59 0 68 1;
#X connect 60 0 61 0;
#X connect 61 0 68 2;
#X connect 62 0 60 0;
#X connect 63 0 64 0;
#X connect 64 0 68 3;
#X connect 65 0 63 0;
#X connect 66 0 62 1;
#X connect 67 0 62 1;
#X connect 69 0 65 1;
#X connect 70 0 65 1;
#X connect 71 0 25 3;
